<svg xmlns="http://www.w3.org/2000/svg" data-name="Layer 1" viewBox="0 0 558 217" height="1555" width="4000">
  <g fill="#fff">
  <path d="M328 205a1 1 0 0 0 0 1h-1v1a1 1 0 0 0 2-1 1 1 0 0 0-1-1zM93 31v1a1 1 0 0 0 1 0 3 3 0 0 1 0-1 3 3 0 0 0 1-1h-1a1 1 0 0 0-1 1zM72 31h1v-1l-2-1v1zM538 105a1 1 0 0 0 1 1h1a4 4 0 0 0 0-1 2 2 0 0 0-1-1h-1zM157 19h-2 1zM139 11v-1h-1a1 1 0 0 0 1 1zM127 21h1a1 1 0 0 0-1 0zM98 141a2 2 0 0 0 1 0h1a1 1 0 0 0-1-1 1 1 0 0 0-1 1zM131 32a1 1 0 0 0-1 0 7 7 0 0 1 1 1 2 2 0 0 1 1 0v-1a1 1 0 0 0 0-1 1 1 0 0 0-1 0zM147 3a1 1 0 0 1 0 1 1 1 0 0 0 0 1h1a1 1 0 0 0 0-1 1 1 0 0 0-1-1zM140 19a1 1 0 0 0 1 0zM116 38v1c-1 1 0 1 1 1a1 1 0 0 0 0-1 1 1 0 0 0-1-1zM314 210a1 1 0 0 0 1 1h1a2 2 0 0 0-1-1zM72 62a1 1 0 0 0-1 1 1 1 0 0 0 1 0zM93 49a1 1 0 0 0 1-1 1 1 0 0 0 0-1h-1a2 2 0 0 1 0 1 2 2 0 0 0 0 1zM139 31v1a1 1 0 0 0 0-1zM161 25h1a1 1 0 0 0 0-1 3 3 0 0 1-1 0 3 3 0 0 0-1-1v1a1 1 0 0 0 1 1zM187 22v-1a3 3 0 0 0-1-2v1a9 9 0 0 0 0 2 1 1 0 0 1 1 0zM227 47v-1l-1-1-1 2zM175 37v1a1 1 0 0 0 1 0 1 1 0 0 0 0-1zM328 209h1a2 2 0 0 0 2 0l-1-1a2 2 0 0 0-2 0 1 1 0 0 0 0 1z"/>
  <path d="M117 115h-1 2-1zM73 93h-1v1h1a2 1 0 0 0 1-1zM69 96a2 1 0 0 1 1 0 2 1 0 0 0 0-1h-2v1zM69 91h-1v1h1v-1zM86 96zM52 93h1zM80 90ZM105 112h-1v1h1a4 1 0 0 0 0-1 2 1 0 0 0 1 0zM62 101h2a3 1 0 0 1-1-1h-1v1zM82 107h1a3 1 0 0 0 0-1h-1v1h-1 1zM90 124h1v-1l-2 1zM63 107h-1l1 1zM115 116a2 1 0 0 0 2 0 2 1 0 0 0-1-1l-1 1zM151 80h1-1zM173 132h1-1zM31 213h-2l1 1v-1h1zM205 126h-1a3 1 0 0 1 1 0 3 1 0 0 0 1 0h-1zM205 118h2zM95 127v1h1l-1-1zM235 29h-1v1l1-1zM198 134h-2l1 1 1-1zM241 24ZM26 208h-1v1a2 1 0 0 0 1 0zM174 118l-1-1v1zM187 126h2a2 1 0 0 1-1 0 2 1 0 0 0-1 0zM189 175h2-2zM27 213v1h1a2 1 0 0 0 0-1h-1zM172 20h1-1zM173 21h1v-1h-1zM430 103h-1l2-1-1 1zM386 124h-1 1a2 1 0 0 1 1 0zM382 122a2 1 0 0 0 1 0l-1 1v-1h-1ZM382 126h-1 1zM399 122v-1 1zM365 124h1zM393 127ZM418 105h-1 1a2 1 0 0 1 1 0zM375 117h2a3 1 0 0 0-1 0 3 1 0 0 1 0 1h-1a3 1 0 0 0 0-1zM395 111h1a3 1 0 0 1 0 1v-1h-2 1zM403 93l1 1h-2zM376 110h-1 1zM428 102a2 1 0 0 1 2-1v1a2 1 0 0 1-1 0h-1zM464 138a2 1 0 0 1 0-1h1l-1 1zM486 86l1-1v1h-1zM344 4h-2 2zM518 92h-1a3 1 0 0 0 1-1 3 1 0 0 1 1 0v1h-1zM518 100v-1h1l1 1zM408 90a2 1 0 0 1 0-1l1 1h-1zM548 188h-1 1zM511 83h-2 2zM554 194ZM339 9h-1a2 1 0 0 1 1 0zM487 99v1h-1v-1zM500 92l1-1 1 1a2 1 0 0 0-1 0 2 1 0 0 1-1 0zM502 42h2-2zM340 4a2 1 0 0 1 0-1h1a2 1 0 0 1 0 1h-1zM485 197h1-1zM486 197h1-1zM261 92a1 1 0 0 1 0-1 1 1 0 0 1 1 2 1 1 0 0 1-1-1zM203 48l1-1a1 1 0 0 1 1 0v1a2 2 0 0 1-1 1zM210 45a2 2 0 0 0 0 1 2 2 0 0 1-1 0l-1-1a1 1 0 0 1 1 0 1 1 0 0 1 0-1h1zM198 45a1 1 0 0 1 0-1h1a1 1 0 0 1 0 1 1 1 0 0 1-1 0zM210 61a1 1 0 0 1 1 0 1 1 0 0 1-1 0zM203 28a1 1 0 0 1 0 1zM195 55ZM254 80v-1a1 1 0 0 1 1 0 1 1 0 0 1 1 0v1a4 4 0 0 1-1 0 2 2 0 0 1 0 1zM223 38v1a1 1 0 0 1 0 1 3 3 0 0 0-1-1 3 3 0 0 1-1 0 1 1 0 0 1 0-1 3 3 0 0 0 1 0 1 1 0 0 1 1 0zM240 57v1a3 3 0 0 1-3 0h1a1 1 0 0 1 0-1h1v-1a1 1 0 0 0 0 1zM286 65l-1 1h-1l1-2zM241 39v-1a1 1 0 0 1 1 1zM264 90a2 2 0 0 1 1 2h-1a2 2 0 0 1-1-1 1 1 0 0 1 1-1zM167 125a2 2 0 0 1 2 0v1a1 1 0 0 1-1 0 1 1 0 0 1-1-1zM307 146a1 1 0 0 1 1 1 1 1 0 0 1-1 0 1 1 0 0 1-1 0 1 1 0 0 1 0-1zM526 7a1 1 0 0 1-1-1V5a1 1 0 0 1 2 1h-1a1 1 0 0 1 0 1zM290 178l1-1a3 3 0 0 0 1 1 3 3 0 0 1 0 1 1 1 0 0 1-1 0 1 1 0 0 1-1-1zM269 178h1v1l-1 1zM295 70h1a2 2 0 0 1 1 0 1 1 0 0 1-1 1 1 1 0 0 1-1-1zM32 207a1 1 0 0 1 0-1h1a1 1 0 0 1-1 1zM314 171h-1v-1l1-1a1 1 0 0 1 1 1 1 1 0 0 1-1 1zM17 213ZM512 2a1 1 0 0 1 0-1 1 1 0 0 1 1 0 2 2 0 0 1 0 1zM270 147a1 1 0 0 1-1 0 1 1 0 0 1-1-1 1 1 0 0 1 1 0 1 1 0 0 0 1 0zM290 160h1a1 1 0 0 1 1 1 1 1 0 0 1-1 1 2 2 0 0 0 0-1 2 2 0 0 1-1-1zM424 162v2h-1v-2zM526 3h1a2 2 0 0 1 1 0v1a2 2 0 0 1-1 0 2 2 0 0 1-1 0 1 1 0 0 1 0-1zM7 145a2 2 0 0 1 1 0v1a1 1 0 0 1-1-1zM9 146a1 1 0 0 1 0 1 1 1 0 0 1-1 0 1 1 0 0 1-1 0 1 1 0 0 1 0-1 1 1 0 0 0 1 0zM41 126a1 1 0 0 1 0 1 1 1 0 0 1-1-2 1 1 0 0 1 1 1zM99 169l-1 1a1 1 0 0 1-1 0v-1a2 2 0 0 1 1-1zM92 173a2 2 0 0 0 0-1 2 2 0 0 1 1 0l1 1a1 1 0 0 1-1 0 1 1 0 0 1 0 1h-1zM104 173a1 1 0 0 1 0 1h-1a1 1 0 0 1 0-1 1 1 0 0 1 1 0zM92 156a1 1 0 0 1-1 0 1 1 0 0 1 1 0zM99 190a1 1 0 0 1 0-1zM107 162ZM48 138v1a1 1 0 0 1-1 0 1 1 0 0 1-1 0v-1a4 4 0 0 1 1 0 2 2 0 0 1 0-1zM79 180v-1a1 1 0 0 1 0-1 3 3 0 0 0 1 1 3 3 0 0 1 1 0 1 1 0 0 1 0 1 3 3 0 0 0-1 0 1 1 0 0 1-1 0zM62 160v-1a3 3 0 0 1 3 0h-1a1 1 0 0 1 0 1h-1v1a1 1 0 0 0 0-1zM16 152l1-1h1l-1 2zM61 179v1a1 1 0 0 1-1-1zM38 128a2 2 0 0 1-1-2h1a2 2 0 0 1 1 1 1 1 0 0 1-1 1zM135 93a2 2 0 0 1-2 0v-1a1 1 0 0 1 1 0 1 1 0 0 1 1 1z"/>
  <path d="M7 147H6a2 2 0 0 1-1 0 1 1 0 0 1 1-1 1 1 0 0 1 1 1zM270 10a1 1 0 0 1 0 1h-1a1 1 0 0 1 1-1zM352 23v-1h1l1 1a1 1 0 0 1-1 1 1 1 0 0 1-1-1zM285 4ZM32 70a1 1 0 0 1 1 0 1 1 0 0 1 1 1 1 1 0 0 1-1 0 1 1 0 0 0-1 0zM12 57h-1a1 1 0 0 1-1-1 1 1 0 0 1 1-1 2 2 0 0 0 0 1 2 2 0 0 1 1 1zM76 127v-2h1v2zM295 72a2 2 0 0 1-1 0v-1a1 1 0 0 1 1 1zM293 71a1 1 0 0 1 0-1 1 1 0 0 1 1 0 1 1 0 0 1 1 0 1 1 0 0 1 0 1 1 1 0 0 0-1 0z"/>
  <path d="M129 164a1 1 0 0 0 0 1h-1v1a1 1 0 0 0 2-1 1 1 0 0 0-1-1zM92 63v1a1 1 0 0 0 1 0 3 3 0 0 1 0-1 3 3 0 0 0 1-1h-1a1 1 0 0 0-1 1zM71 63h1v-1l-2-1v1zM339 64a1 1 0 0 0 1 1h1a4 4 0 0 0 0-1 2 2 0 0 0-1-1h-1zM156 51h-2 1zM138 43v-1h-1a1 1 0 0 0 1 1zM126 53h1a1 1 0 0 0-1 0zM97 173a2 2 0 0 0 1 0h1a1 1 0 0 0-1-1 1 1 0 0 0-1 1zM130 64a1 1 0 0 0-1 0 7 7 0 0 1 1 1 2 2 0 0 1 1 0v-1a1 1 0 0 0 0-1 1 1 0 0 0-1 0zM146 35a1 1 0 0 1 0 1 1 1 0 0 0 0 1h1a1 1 0 0 0 0-1 1 1 0 0 0-1-1zM139 51a1 1 0 0 0 1 0zM115 70v1c-1 1 0 1 1 1a1 1 0 0 0 0-1 1 1 0 0 0-1-1zM115 169a1 1 0 0 0 1 1h1a2 2 0 0 0-1-1zM71 94a1 1 0 0 0-1 1 1 1 0 0 0 1 0zM92 81a1 1 0 0 0 1-1 1 1 0 0 0 0-1h-1a2 2 0 0 1 0 1 2 2 0 0 0 0 1zM138 63v1a1 1 0 0 0 0-1zM290 49v-1a1 1 0 0 0-1 0 3 3 0 0 1 0 1 3 3 0 0 0-1 1h1a1 1 0 0 0 1-1zM287 23h-1a3 3 0 0 0-2 1h1a9 9 0 0 0 2 0 1 1 0 0 1 0-1zM302 35h1a1 1 0 0 0 0-1 1 1 0 0 0-1 0zM129 168h1a2 2 0 0 0 2 0l-1-1a2 2 0 0 0-2 0 1 1 0 0 0 0 1zM261 181a1 1 0 0 0 0 1h-1v1a1 1 0 0 0 2-1 1 1 0 0 0-1-1zM471 81a1 1 0 0 0 1 1h1a4 4 0 0 0 0-1 2 2 0 0 0-1-1h-1zM31 117a2 2 0 0 0 1 0h1a1 1 0 0 0-1-1 1 1 0 0 0-1 1zM64 8a1 1 0 0 0-1 0 7 7 0 0 1 1 1 2 2 0 0 1 1 0V8a1 1 0 0 0 0-1 1 1 0 0 0-1 0zM247 186a1 1 0 0 0 1 1h1a2 2 0 0 0-1-1zM72 7v1a1 1 0 0 0 0-1zM94 1h1a1 1 0 0 0 0-1 3 3 0 0 1-1 0 3 3 0 0 0-1-1v1a1 1 0 0 0 1 1zM160 23v-1l-1-1-1 2zM108 13v1a1 1 0 0 0 1 0 1 1 0 0 0 0-1zM261 185h1a2 2 0 0 0 2 0l-1-1a2 2 0 0 0-2 0 1 1 0 0 0 0 1zM102 151a1 1 0 0 0 0 1h-1v1a1 1 0 0 0 2-1 1 1 0 0 0-1-1zM65 49v1a1 1 0 0 0 1 0 3 3 0 0 1 0-1 3 3 0 0 0 1-1h-1a1 1 0 0 0-1 1zM312 51a1 1 0 0 0 1 1h1a4 4 0 0 0 0-1 2 2 0 0 0-1-1h-1zM129 37h-2 1zM111 29v-1h-1a1 1 0 0 0 1 1zM99 39h1a1 1 0 0 0-1 0zM70 159a2 2 0 0 0 1 0h1a1 1 0 0 0-1-1 1 1 0 0 0-1 1zM103 50a1 1 0 0 0-1 0 7 7 0 0 1 1 1 2 2 0 0 1 1 0v-1a1 1 0 0 0 0-1 1 1 0 0 0-1 0zM119 21a1 1 0 0 1 0 1 1 1 0 0 0 0 1h1a1 1 0 0 0 0-1 1 1 0 0 0-1-1zM112 37a1 1 0 0 0 1 0zM88 56v1c-1 1 0 1 1 1a1 1 0 0 0 0-1 1 1 0 0 0-1-1zM88 156a1 1 0 0 0 1 1h1a2 2 0 0 0-1-1zM44 80a1 1 0 0 0-1 1 1 1 0 0 0 1 0zM65 67a1 1 0 0 0 1-1 1 1 0 0 0 0-1h-1a2 2 0 0 1 0 1 2 2 0 0 0 0 1zM111 49v1a1 1 0 0 0 0-1zM133 43h1a1 1 0 0 0 0-1 3 3 0 0 1-1 0 3 3 0 0 0-1-1v1a1 1 0 0 0 1 1zM159 40v-1a3 3 0 0 0-1-2v1a9 9 0 0 0 0 2 1 1 0 0 1 1 0zM147 55v1a1 1 0 0 0 1 0 1 1 0 0 0 0-1zM102 155h1a2 2 0 0 0 2 0l-1-1a2 2 0 0 0-2 0 1 1 0 0 0 0 1zM113 124a1 1 0 0 0 0 1h-1v1a1 1 0 0 0 2-1 1 1 0 0 0-1-1zM76 22v1a1 1 0 0 0 1 0 3 3 0 0 1 0-1 3 3 0 0 0 1-1h-1a1 1 0 0 0-1 1zM55 22h1v-1l-2-1v1zM323 24a1 1 0 0 0 1 1h1a4 4 0 0 0 0-1 2 2 0 0 0-1-1h-1zM140 10h-2 1zM122 2V1h-1a1 1 0 0 0 1 1zM110 12h1a1 1 0 0 0-1 0zM81 132a2 2 0 0 0 1 0h1a1 1 0 0 0-1-1 1 1 0 0 0-1 1zM114 23a1 1 0 0 0-1 0 7 7 0 0 1 1 1 2 2 0 0 1 1 0v-1a1 1 0 0 0 0-1 1 1 0 0 0-1 0zM123 10a1 1 0 0 0 1 0zM99 29v1c-1 1 0 1 1 1a1 1 0 0 0 0-1 1 1 0 0 0-1-1zM99 129a1 1 0 0 0 1 1h1a2 2 0 0 0-1-1zM55 53a1 1 0 0 0-1 1 1 1 0 0 0 1 0zM76 40a1 1 0 0 0 1-1 1 1 0 0 0 0-1h-1a2 2 0 0 1 0 1 2 2 0 0 0 0 1zM122 22v1a1 1 0 0 0 0-1zM144 16h1a1 1 0 0 0 0-1 3 3 0 0 1-1 0 3 3 0 0 0-1-1v1a1 1 0 0 0 1 1zM158 28v1a1 1 0 0 0 1 0 1 1 0 0 0 0-1zM113 128h1a2 2 0 0 0 2 0l-1-1a2 2 0 0 0-2 0 1 1 0 0 0 0 1zM75 123a1 1 0 0 0 0 1h-1v1a1 1 0 0 0 2-1 1 1 0 0 0-1-1z"/>
  <path d="M285 23a1 1 0 0 0 1 1h1a4 4 0 0 0 0-1 2 2 0 0 0-1-1h-1zM102 9h-2 1zM84 1V0h-1a1 1 0 0 0 1 1zM72 11h1a1 1 0 0 0-1 0zM43 131a2 2 0 0 0 1 0h1a1 1 0 0 0-1-1 1 1 0 0 0-1 1zM76 22a1 1 0 0 0-1 0 7 7 0 0 1 1 1 2 2 0 0 1 1 0v-1a1 1 0 0 0 0-1 1 1 0 0 0-1 0zM85 9a1 1 0 0 0 1 0zM61 28v1c-1 1 0 1 1 1a1 1 0 0 0 0-1 1 1 0 0 0-1-1zM61 128a1 1 0 0 0 1 1h1a2 2 0 0 0-1-1zM17 52a1 1 0 0 0-1 1 1 1 0 0 0 1 0zM84 21v1a1 1 0 0 0 0-1zM106 15h1a1 1 0 0 0 0-1 3 3 0 0 1-1 0 3 3 0 0 0-1-1v1a1 1 0 0 0 1 1zM132 12v-1a3 3 0 0 0-1-2v1a9 9 0 0 0 0 2 1 1 0 0 1 1 0zM270 37h-1l-1 1 2 1zM120 27v1a1 1 0 0 0 1 0 1 1 0 0 0 0-1zM75 127h1a2 2 0 0 0 2 0l-1-1a2 2 0 0 0-2 0 1 1 0 0 0 0 1zM3 155v1a1 1 0 0 0 1 0 3 3 0 0 1 0-1 3 3 0 0 0 1-1H4a1 1 0 0 0-1 1zM460 29v-1h-1l-1 2h1zM251 157a1 1 0 0 0 1 1h1a4 4 0 0 0 0-1 2 2 0 0 0-1-1h-1zM67 143h-2 1zM49 135v-1h-1a1 1 0 0 0 1 1zM37 145h1a1 1 0 0 0-1 0zM498 200a2 2 0 0 0 0-1v-1a1 1 0 0 0-1 1 1 1 0 0 0 1 1zM41 156a1 1 0 0 0-1 0 7 7 0 0 1 1 1 2 2 0 0 1 1 0v-1a1 1 0 0 0 0-1 1 1 0 0 0-1 0zM57 127a1 1 0 0 1 0 1 1 1 0 0 0 0 1h1a1 1 0 0 0 0-1 1 1 0 0 0-1-1zM50 143a1 1 0 0 0 1 0zM26 162v1c-1 1 0 1 1 1a1 1 0 0 0 0-1 1 1 0 0 0-1-1zM491 29a1 1 0 0 0 1 1 1 1 0 0 0 0-1zM3 173a1 1 0 0 0 1-1 1 1 0 0 0 0-1H3a2 2 0 0 1 0 1 2 2 0 0 0 0 1zM49 155v1a1 1 0 0 0 0-1zM71 149h1a1 1 0 0 0 0-1 3 3 0 0 1-1 0 3 3 0 0 0-1-1v1a1 1 0 0 0 1 1zM97 146v-1a3 3 0 0 0-1-2v1a9 9 0 0 0 0 2 1 1 0 0 1 1 0zM137 171v-1l-1-1-1 2zM85 161v1a1 1 0 0 0 1 0 1 1 0 0 0 0-1zM13 166v1a1 1 0 0 0 1 0 3 3 0 0 1 0-1 3 3 0 0 0 1-1h-1a1 1 0 0 0-1 1zM261 168a1 1 0 0 0 1 1h1a4 4 0 0 0 0-1 2 2 0 0 0-1-1h-1zM77 154h-2 1zM59 146v-1h-1a1 1 0 0 0 1 1zM47 156h1a1 1 0 0 0-1 0zM510 190a2 2 0 0 0 0-1v-1a1 1 0 0 0-1 1 1 1 0 0 0 1 1zM51 167a1 1 0 0 0-1 0 7 7 0 0 1 1 1 2 2 0 0 1 1 0v-1a1 1 0 0 0 0-1 1 1 0 0 0-1 0zM67 138a1 1 0 0 1 0 1 1 1 0 0 0 0 1h1a1 1 0 0 0 0-1 1 1 0 0 0-1-1zM60 154a1 1 0 0 0 1 0zM36 173v1c-1 1 0 1 1 1a1 1 0 0 0 0-1 1 1 0 0 0-1-1zM503 19a1 1 0 0 0 1 1 1 1 0 0 0 0-1zM13 184a1 1 0 0 0 1-1 1 1 0 0 0 0-1h-1a2 2 0 0 1 0 1 2 2 0 0 0 0 1zM59 166v1a1 1 0 0 0 0-1zM81 160h1a1 1 0 0 0 0-1 3 3 0 0 1-1 0 3 3 0 0 0-1-1v1a1 1 0 0 0 1 1zM107 157v-1a3 3 0 0 0-1-2v1a9 9 0 0 0 0 2 1 1 0 0 1 1 0zM147 182v-1l-1-1-1 2zM95 172v1a1 1 0 0 0 1 0 1 1 0 0 0 0-1zM107 177v1a1 1 0 0 0 1 0 3 3 0 0 1 0-1 3 3 0 0 0 1-1h-1a1 1 0 0 0-1 1zM86 177h1v-1l-2-1v1zM354 179a1 1 0 0 0 1 1h1a4 4 0 0 0 0-1 2 2 0 0 0-1-1h-1zM398 38v2-1zM153 157v-1h-1a1 1 0 0 0 1 1zM141 167h1a1 1 0 0 0-1 0zM520 97a2 2 0 0 0 0-1v-1a1 1 0 0 0-1 1 1 1 0 0 0 1 1zM145 178a1 1 0 0 0-1 0 7 7 0 0 1 1 1 2 2 0 0 1 1 0v-1a1 1 0 0 0 0-1 1 1 0 0 0-1 0zM382 48a1 1 0 0 1 1 0 1 1 0 0 0 1 0v-1a1 1 0 0 0-1 0 1 1 0 0 0-1 1zM154 165a1 1 0 0 0 1 0zM130 184v1c-1 1 0 1 1 1a1 1 0 0 0 0-1 1 1 0 0 0-1-1zM86 208a1 1 0 0 0-1 1 1 1 0 0 0 1 0zM107 195a1 1 0 0 0 1-1 1 1 0 0 0 0-1h-1a2 2 0 0 1 0 1 2 2 0 0 0 0 1zM153 177v1a1 1 0 0 0 0-1zM404 34v-1a1 1 0 0 0-1 0 3 3 0 0 1 0 1 3 3 0 0 0-1 1h1a1 1 0 0 0 1-1zM3 96v-1a3 3 0 0 0-1-2v1a9 9 0 0 0 0 2 1 1 0 0 1 1 0zM43 121v-1l-1-1-1 2zM416 20h1a1 1 0 0 0 0-1 1 1 0 0 0-1 0zM456 35v-1h-1l-1 2h1zM61 139h-2 1zM43 131v-1h-1a1 1 0 0 0 1 1zM31 141h1a1 1 0 0 0-1 0zM35 152a1 1 0 0 0-1 0 7 7 0 0 1 1 1 2 2 0 0 1 1 0v-1a1 1 0 0 0 0-1 1 1 0 0 0-1 0zM51 123a1 1 0 0 1 0 1 1 1 0 0 0 0 1h1a1 1 0 0 0 0-1 1 1 0 0 0-1-1zM44 139a1 1 0 0 0 1 0zM20 158v1c-1 1 0 1 1 1a1 1 0 0 0 0-1 1 1 0 0 0-1-1zM487 35a1 1 0 0 0 1 1 1 1 0 0 0 0-1zM43 151v1a1 1 0 0 0 0-1zM65 145h1a1 1 0 0 0 0-1 3 3 0 0 1-1 0 3 3 0 0 0-1-1v1a1 1 0 0 0 1 1zM91 142v-1a3 3 0 0 0-1-2v1a9 9 0 0 0 0 2 1 1 0 0 1 1 0zM131 167v-1l-1-1-1 2zM79 157v1a1 1 0 0 0 1 0 1 1 0 0 0 0-1zM203 52v1a1 1 0 0 0 1 0 3 3 0 0 1 0-1 3 3 0 0 0 1-1h-1a1 1 0 0 0-1 1zM182 52h1v-1l-2-1v1zM267 40h-2 1zM249 32v-1h-1a1 1 0 0 0 1 1zM237 42h1a1 1 0 0 0-1 0zM208 162a2 2 0 0 0 1 0h1a1 1 0 0 0-1-1 1 1 0 0 0-1 1zM241 53a1 1 0 0 0-1 0 7 7 0 0 1 1 1 2 2 0 0 1 1 0v-1a1 1 0 0 0 0-1 1 1 0 0 0-1 0zM257 24a1 1 0 0 1 0 1 1 1 0 0 0 0 1h1a1 1 0 0 0 0-1 1 1 0 0 0-1-1zM250 40a1 1 0 0 0 1 0zM226 59v1c-1 1 0 1 1 1a1 1 0 0 0 0-1 1 1 0 0 0-1-1zM182 83a1 1 0 0 0-1 1 1 1 0 0 0 1 0zM203 70a1 1 0 0 0 1-1 1 1 0 0 0 0-1h-1a2 2 0 0 1 0 1 2 2 0 0 0 0 1zM249 52v1a1 1 0 0 0 0-1zM271 46h1a1 1 0 0 0 0-1 3 3 0 0 1-1 0 3 3 0 0 0-1-1v1a1 1 0 0 0 1 1zM297 43v-1a3 3 0 0 0-1-2v1a9 9 0 0 0 0 2 1 1 0 0 1 1 0zM337 68v-1l-1-1-1 2zM285 58v1a1 1 0 0 0 1 0 1 1 0 0 0 0-1zM404 159a1 1 0 0 0 0 1h-1v1a1 1 0 0 0 2-1 1 1 0 0 0-1-1zM174 95a2 2 0 0 0 1 0h1a1 1 0 0 0-1-1 1 1 0 0 0-1 1zM390 164a1 1 0 0 0 1 1h1a2 2 0 0 0-1-1zM148 16a1 1 0 0 0-1 1 1 1 0 0 0 1 0zM169 3a1 1 0 0 0 1-1 1 1 0 0 0 0-1h-1a2 2 0 0 1 0 1 2 2 0 0 0 0 1zM303 1V0l-1-1-1 2zM404 163h1a2 2 0 0 0 2 0l-1-1a2 2 0 0 0-2 0 1 1 0 0 0 0 1zM395 207a1 1 0 0 0 0 1h-1v1a1 1 0 0 0 2-1 1 1 0 0 0-1-1zM160 33v1a1 1 0 0 0 1 0 3 3 0 0 1 0-1 3 3 0 0 0 1-1h-1a1 1 0 0 0-1 1zM139 33h1v-1l-2-1v1zM224 21h-2 1zM206 13v-1h-1a1 1 0 0 0 1 1zM194 23h1a1 1 0 0 0-1 0zM165 143a2 2 0 0 0 1 0h1a1 1 0 0 0-1-1 1 1 0 0 0-1 1zM198 34a1 1 0 0 0-1 0 7 7 0 0 1 1 1 2 2 0 0 1 1 0v-1a1 1 0 0 0 0-1 1 1 0 0 0-1 0zM214 5a1 1 0 0 1 0 1 1 1 0 0 0 0 1h1a1 1 0 0 0 0-1 1 1 0 0 0-1-1zM207 21a1 1 0 0 0 1 0zM183 40v1c-1 1 0 1 1 1a1 1 0 0 0 0-1 1 1 0 0 0-1-1zM381 212a1 1 0 0 0 1 1h1a2 2 0 0 0-1-1zM139 64a1 1 0 0 0-1 1 1 1 0 0 0 1 0zM160 51a1 1 0 0 0 1-1 1 1 0 0 0 0-1h-1a2 2 0 0 1 0 1 2 2 0 0 0 0 1zM206 33v1a1 1 0 0 0 0-1zM228 27h1a1 1 0 0 0 0-1 3 3 0 0 1-1 0 3 3 0 0 0-1-1v1a1 1 0 0 0 1 1zM254 24v-1a3 3 0 0 0-1-2v1a9 9 0 0 0 0 2 1 1 0 0 1 1 0zM294 49v-1l-1-1-1 2zM242 39v1a1 1 0 0 0 1 0 1 1 0 0 0 0-1zM395 211h1a2 2 0 0 0 2 0l-1-1a2 2 0 0 0-2 0 1 1 0 0 0 0 1zM243 74v1a1 1 0 0 0 1 0 3 3 0 0 1 0-1 3 3 0 0 0 1-1h-1a1 1 0 0 0-1 1zM222 74h1v-1l-2-1v1zM307 62h-2 1zM289 54v-1h-1a1 1 0 0 0 1 1zM277 64h1a1 1 0 0 0-1 0zM248 184a2 2 0 0 0 1 0h1a1 1 0 0 0-1-1 1 1 0 0 0-1 1zM281 75a1 1 0 0 0-1 0 7 7 0 0 1 1 1 2 2 0 0 1 1 0v-1a1 1 0 0 0 0-1 1 1 0 0 0-1 0zM297 46a1 1 0 0 1 0 1 1 1 0 0 0 0 1h1a1 1 0 0 0 0-1 1 1 0 0 0-1-1zM290 62a1 1 0 0 0 1 0zM266 81v1c-1 1 0 1 1 1a1 1 0 0 0 0-1 1 1 0 0 0-1-1zM222 105a1 1 0 0 0-1 1 1 1 0 0 0 1 0zM243 92a1 1 0 0 0 1-1 1 1 0 0 0 0-1h-1a2 2 0 0 1 0 1 2 2 0 0 0 0 1zM289 74v1a1 1 0 0 0 0-1zM311 68h1a1 1 0 0 0 0-1 3 3 0 0 1-1 0 3 3 0 0 0-1-1v1a1 1 0 0 0 1 1zM337 65v-1a3 3 0 0 0-1-2v1a9 9 0 0 0 0 2 1 1 0 0 1 1 0zM377 90v-1l-1-1-1 2zM325 80v1a1 1 0 0 0 1 0 1 1 0 0 0 0-1zM256 46v1a1 1 0 0 0 1 0 3 3 0 0 1 0-1 3 3 0 0 0 1-1h-1a1 1 0 0 0-1 1zM235 46h1v-1l-2-1v1zM320 34h-2 1zM302 26v-1h-1a1 1 0 0 0 1 1zM290 36h1a1 1 0 0 0-1 0zM261 156a2 2 0 0 0 1 0h1a1 1 0 0 0-1-1 1 1 0 0 0-1 1zM294 47a1 1 0 0 0-1 0 7 7 0 0 1 1 1 2 2 0 0 1 1 0v-1a1 1 0 0 0 0-1 1 1 0 0 0-1 0zM310 18a1 1 0 0 1 0 1 1 1 0 0 0 0 1h1a1 1 0 0 0 0-1 1 1 0 0 0-1-1zM303 34a1 1 0 0 0 1 0zM279 53v1c-1 1 0 1 1 1a1 1 0 0 0 0-1 1 1 0 0 0-1-1zM235 77a1 1 0 0 0-1 1 1 1 0 0 0 1 0zM256 64a1 1 0 0 0 1-1 1 1 0 0 0 0-1h-1a2 2 0 0 1 0 1 2 2 0 0 0 0 1zM302 46v1a1 1 0 0 0 0-1zM324 40h1a1 1 0 0 0 0-1 3 3 0 0 1-1 0 3 3 0 0 0-1-1v1a1 1 0 0 0 1 1zM350 37v-1a3 3 0 0 0-1-2v1a9 9 0 0 0 0 2 1 1 0 0 1 1 0zM390 62v-1l-1-1-1 2zM338 52v1a1 1 0 0 0 1 0 1 1 0 0 0 0-1zM452 205a1 1 0 0 0 0 1h-1v1a1 1 0 0 0 2-1 1 1 0 0 0-1-1zM217 31v1a1 1 0 0 0 1 0 3 3 0 0 1 0-1 3 3 0 0 0 1-1h-1a1 1 0 0 0-1 1zM196 31h1v-1l-2-1v1zM281 19h-2 1zM263 11v-1h-1a1 1 0 0 0 1 1zM251 21h1a1 1 0 0 0-1 0zM222 141a2 2 0 0 0 1 0h1a1 1 0 0 0-1-1 1 1 0 0 0-1 1zM255 32a1 1 0 0 0-1 0 7 7 0 0 1 1 1 2 2 0 0 1 1 0v-1a1 1 0 0 0 0-1 1 1 0 0 0-1 0zM271 3a1 1 0 0 1 0 1 1 1 0 0 0 0 1h1a1 1 0 0 0 0-1 1 1 0 0 0-1-1zM264 19a1 1 0 0 0 1 0zM240 38v1c-1 1 0 1 1 1a1 1 0 0 0 0-1 1 1 0 0 0-1-1zM438 210a1 1 0 0 0 1 1h1a2 2 0 0 0-1-1zM196 62a1 1 0 0 0-1 1 1 1 0 0 0 1 0zM217 49a1 1 0 0 0 1-1 1 1 0 0 0 0-1h-1a2 2 0 0 1 0 1 2 2 0 0 0 0 1zM263 31v1a1 1 0 0 0 0-1z"/>
  <path d="M285 25h1a1 1 0 0 0 0-1 3 3 0 0 1-1 0 3 3 0 0 0-1-1v1a1 1 0 0 0 1 1zM311 22v-1a3 3 0 0 0-1-2v1a9 9 0 0 0 0 2 1 1 0 0 1 1 0zM351 47v-1l-1-1-1 2zM299 37v1a1 1 0 0 0 1 0 1 1 0 0 0 0-1zM452 209h1a2 2 0 0 0 2 0l-1-1a2 2 0 0 0-2 0 1 1 0 0 0 0 1zM144 95v1a1 1 0 0 0 1 0 3 3 0 0 1 0-1 3 3 0 0 0 1-1h-1a1 1 0 0 0-1 1zM123 95h1v-1l-2-1v1zM208 83h-2 1zM190 75v-1h-1a1 1 0 0 0 1 1zM178 85h1a1 1 0 0 0-1 0zM149 205a2 2 0 0 0 1 0h1a1 1 0 0 0-1-1 1 1 0 0 0-1 1zM182 96a1 1 0 0 0-1 0 7 7 0 0 1 1 1 2 2 0 0 1 1 0v-1a1 1 0 0 0 0-1 1 1 0 0 0-1 0zM198 67a1 1 0 0 1 0 1 1 1 0 0 0 0 1h1a1 1 0 0 0 0-1 1 1 0 0 0-1-1zM191 83a1 1 0 0 0 1 0zM167 102v1c-1 1 0 1 1 1a1 1 0 0 0 0-1 1 1 0 0 0-1-1zM123 126a1 1 0 0 0-1 1 1 1 0 0 0 1 0zM144 113a1 1 0 0 0 1-1 1 1 0 0 0 0-1h-1a2 2 0 0 1 0 1 2 2 0 0 0 0 1zM190 95v1a1 1 0 0 0 0-1zM212 89h1a1 1 0 0 0 0-1 3 3 0 0 1-1 0 3 3 0 0 0-1-1v1a1 1 0 0 0 1 1zM238 86v-1a3 3 0 0 0-1-2v1a9 9 0 0 0 0 2 1 1 0 0 1 1 0zM278 111v-1l-1-1-1 2zM226 101v1a1 1 0 0 0 1 0 1 1 0 0 0 0-1zM358 181a1 1 0 0 0 0 1h-1v1a1 1 0 0 0 2-1 1 1 0 0 0-1-1zM123 7v1a1 1 0 0 0 1 0 3 3 0 0 1 0-1 3 3 0 0 0 1-1h-1a1 1 0 0 0-1 1zM102 7h1V6l-2-1v1zM128 117a2 2 0 0 0 1 0h1a1 1 0 0 0-1-1 1 1 0 0 0-1 1zM161 8a1 1 0 0 0-1 0 7 7 0 0 1 1 1 2 2 0 0 1 1 0V8a1 1 0 0 0 0-1 1 1 0 0 0-1 0zM146 14v1c-1 1 0 1 1 1a1 1 0 0 0 0-1 1 1 0 0 0-1-1zM344 186a1 1 0 0 0 1 1h1a2 2 0 0 0-1-1zM102 38a1 1 0 0 0-1 1 1 1 0 0 0 1 0zM123 25a1 1 0 0 0 1-1 1 1 0 0 0 0-1h-1a2 2 0 0 1 0 1 2 2 0 0 0 0 1zM169 7v1a1 1 0 0 0 0-1zM191 1h1a1 1 0 0 0 0-1 3 3 0 0 1-1 0 3 3 0 0 0-1-1v1a1 1 0 0 0 1 1zM257 23v-1l-1-1-1 2zM205 13v1a1 1 0 0 0 1 0 1 1 0 0 0 0-1zM358 185h1a2 2 0 0 0 2 0l-1-1a2 2 0 0 0-2 0 1 1 0 0 0 0 1zM443 145a1 1 0 0 0 0 1h-1v1a1 1 0 0 0 2-1 1 1 0 0 0-1-1zM213 81a2 2 0 0 0 1 0h1a1 1 0 0 0-1-1 1 1 0 0 0-1 1zM429 150a1 1 0 0 0 1 1h1a2 2 0 0 0-1-1zM187 2a1 1 0 0 0-1 1 1 1 0 0 0 1 0zM443 149h1a2 2 0 0 0 2 0l-1-1a2 2 0 0 0-2 0 1 1 0 0 0 0 1zM205 90v1a1 1 0 0 0 1 0 3 3 0 0 1 0-1 3 3 0 0 0 1-1h-1a1 1 0 0 0-1 1zM184 90h1v-1l-2-1v1zM269 78h-2 1zM251 70v-1h-1a1 1 0 0 0 1 1zM239 80h1a1 1 0 0 0-1 0zM210 200a2 2 0 0 0 1 0h1a1 1 0 0 0-1-1 1 1 0 0 0-1 1zM243 91a1 1 0 0 0-1 0 7 7 0 0 1 1 1 2 2 0 0 1 1 0v-1a1 1 0 0 0 0-1 1 1 0 0 0-1 0zM259 62a1 1 0 0 1 0 1 1 1 0 0 0 0 1h1a1 1 0 0 0 0-1 1 1 0 0 0-1-1zM252 78a1 1 0 0 0 1 0zM228 97v1c-1 1 0 1 1 1a1 1 0 0 0 0-1 1 1 0 0 0-1-1zM184 121a1 1 0 0 0-1 1 1 1 0 0 0 1 0zM205 108a1 1 0 0 0 1-1 1 1 0 0 0 0-1h-1a2 2 0 0 1 0 1 2 2 0 0 0 0 1zM251 90v1a1 1 0 0 0 0-1zM273 84h1a1 1 0 0 0 0-1 3 3 0 0 1-1 0 3 3 0 0 0-1-1v1a1 1 0 0 0 1 1zM299 81v-1a3 3 0 0 0-1-2v1a9 9 0 0 0 0 2 1 1 0 0 1 1 0zM339 106v-1l-1-1-1 2zM287 96v1a1 1 0 0 0 1 0 1 1 0 0 0 0-1zM520 178a1 1 0 0 0 0 1h-1v1a1 1 0 0 0 2-1 1 1 0 0 0-1-1zM285 4v1a1 1 0 0 0 1 0 3 3 0 0 1 0-1 3 3 0 0 0 1-1h-1a1 1 0 0 0-1 1zM264 4h1V3l-2-1v1zM290 114a2 2 0 0 0 1 0h1a1 1 0 0 0-1-1 1 1 0 0 0-1 1zM323 5a1 1 0 0 0-1 0 7 7 0 0 1 1 1 2 2 0 0 1 1 0V5a1 1 0 0 0 0-1 1 1 0 0 0-1 0zM308 11v1c-1 1 0 1 1 1a1 1 0 0 0 0-1 1 1 0 0 0-1-1zM506 183a1 1 0 0 0 1 1h1a2 2 0 0 0-1-1zM264 35a1 1 0 0 0-1 1 1 1 0 0 0 1 0zM285 22a1 1 0 0 0 1-1 1 1 0 0 0 0-1h-1a2 2 0 0 1 0 1 2 2 0 0 0 0 1zM331 4v1a1 1 0 0 0 0-1zM419 20v-1l-1-1-1 2zM367 10v1a1 1 0 0 0 1 0 1 1 0 0 0 0-1zM520 182h1a2 2 0 0 0 2 0l-1-1a2 2 0 0 0-2 0 1 1 0 0 0 0 1zM151 94v1a1 1 0 0 0 1 0 3 3 0 0 1 0-1 3 3 0 0 0 1-1h-1a1 1 0 0 0-1 1zM130 94h1v-1l-2-1v1zM215 82h-2 1zM197 74v-1h-1a1 1 0 0 0 1 1zM185 84h1a1 1 0 0 0-1 0zM156 204a2 2 0 0 0 1 0h1a1 1 0 0 0-1-1 1 1 0 0 0-1 1z"/>
  <path d="M189 95a1 1 0 0 0-1 0 7 7 0 0 1 1 1 2 2 0 0 1 1 0v-1a1 1 0 0 0 0-1 1 1 0 0 0-1 0zM205 66a1 1 0 0 1 0 1 1 1 0 0 0 0 1h1a1 1 0 0 0 0-1 1 1 0 0 0-1-1zM198 82a1 1 0 0 0 1 0zM174 101v1c-1 1 0 1 1 1a1 1 0 0 0 0-1 1 1 0 0 0-1-1zM130 125a1 1 0 0 0-1 1 1 1 0 0 0 1 0zM151 112a1 1 0 0 0 1-1 1 1 0 0 0 0-1h-1a2 2 0 0 1 0 1 2 2 0 0 0 0 1zM197 94v1a1 1 0 0 0 0-1zM219 88h1a1 1 0 0 0 0-1 3 3 0 0 1-1 0 3 3 0 0 0-1-1v1a1 1 0 0 0 1 1zM245 85v-1a3 3 0 0 0-1-2v1a9 9 0 0 0 0 2 1 1 0 0 1 1 0zM285 110v-1l-1-1-1 2zM233 100v1a1 1 0 0 0 1 0 1 1 0 0 0 0-1zM159 163v1a1 1 0 0 0 1 0 3 3 0 0 1 0-1 3 3 0 0 0 1-1h-1a1 1 0 0 0-1 1zM138 163h1v-1l-2-1v1zM223 151h-2 1zM205 143v-1h-1a1 1 0 0 0 1 1zM193 153h1a1 1 0 0 0-1 0zM197 164a1 1 0 0 0-1 0 7 7 0 0 1 1 1 2 2 0 0 1 1 0v-1a1 1 0 0 0 0-1 1 1 0 0 0-1 0zM213 135a1 1 0 0 1 0 1 1 1 0 0 0 0 1h1a1 1 0 0 0 0-1 1 1 0 0 0-1-1zM206 151a1 1 0 0 0 1 0zM182 170v1c-1 1 0 1 1 1a1 1 0 0 0 0-1 1 1 0 0 0-1-1zM138 194a1 1 0 0 0-1 1 1 1 0 0 0 1 0zM159 181a1 1 0 0 0 1-1 1 1 0 0 0 0-1h-1a2 2 0 0 1 0 1 2 2 0 0 0 0 1zM205 163v1a1 1 0 0 0 0-1zM227 157h1a1 1 0 0 0 0-1 3 3 0 0 1-1 0 3 3 0 0 0-1-1v1a1 1 0 0 0 1 1zM253 154v-1a3 3 0 0 0-1-2v1a9 9 0 0 0 0 2 1 1 0 0 1 1 0zM293 179v-1l-1-1-1 2zM241 169v1a1 1 0 0 0 1 0 1 1 0 0 0 0-1zM161 79v1a1 1 0 0 0 1 0 3 3 0 0 1 0-1 3 3 0 0 0 1-1h-1a1 1 0 0 0-1 1zM140 79h1v-1l-2-1v1zM225 67h-2 1zM207 59v-1h-1a1 1 0 0 0 1 1zM195 69h1a1 1 0 0 0-1 0zM166 189a2 2 0 0 0 1 0h1a1 1 0 0 0-1-1 1 1 0 0 0-1 1zM199 80a1 1 0 0 0-1 0 7 7 0 0 1 1 1 2 2 0 0 1 1 0v-1a1 1 0 0 0 0-1 1 1 0 0 0-1 0zM215 51a1 1 0 0 1 0 1 1 1 0 0 0 0 1h1a1 1 0 0 0 0-1 1 1 0 0 0-1-1zM208 67a1 1 0 0 0 1 0zM184 86v1c-1 1 0 1 1 1a1 1 0 0 0 0-1 1 1 0 0 0-1-1zM140 110a1 1 0 0 0-1 1 1 1 0 0 0 1 0zM161 97a1 1 0 0 0 1-1 1 1 0 0 0 0-1h-1a2 2 0 0 1 0 1 2 2 0 0 0 0 1zM207 79v1a1 1 0 0 0 0-1zM229 73h1a1 1 0 0 0 0-1 3 3 0 0 1-1 0 3 3 0 0 0-1-1v1a1 1 0 0 0 1 1zM255 70v-1a3 3 0 0 0-1-2v1a9 9 0 0 0 0 2 1 1 0 0 1 1 0zM295 95v-1l-1-1-1 2zM243 85v1a1 1 0 0 0 1 0 1 1 0 0 0 0-1zM440 192a1 1 0 0 0 0 1h-1v1a1 1 0 0 0 2-1 1 1 0 0 0-1-1zM205 18v1a1 1 0 0 0 1 0 3 3 0 0 1 0-1 3 3 0 0 0 1-1h-1a1 1 0 0 0-1 1zM184 18h1v-1l-2-1v1zM269 6h-2 1zM239 8h1a1 1 0 0 0-1 0zM210 128a2 2 0 0 0 1 0h1a1 1 0 0 0-1-1 1 1 0 0 0-1 1zM243 19a1 1 0 0 0-1 0 7 7 0 0 1 1 1 2 2 0 0 1 1 0v-1a1 1 0 0 0 0-1 1 1 0 0 0-1 0zM252 6a1 1 0 0 0 1 0zM228 25v1c-1 1 0 1 1 1a1 1 0 0 0 0-1 1 1 0 0 0-1-1zM426 197a1 1 0 0 0 1 1h1a2 2 0 0 0-1-1zM184 49a1 1 0 0 0-1 1 1 1 0 0 0 1 0zM205 36a1 1 0 0 0 1-1 1 1 0 0 0 0-1h-1a2 2 0 0 1 0 1 2 2 0 0 0 0 1zM251 18v1a1 1 0 0 0 0-1zM273 12h1a1 1 0 0 0 0-1 3 3 0 0 1-1 0 3 3 0 0 0-1-1v1a1 1 0 0 0 1 1zM299 9V8a3 3 0 0 0-1-2v1a9 9 0 0 0 0 2 1 1 0 0 1 1 0zM339 34v-1l-1-1-1 2zM287 24v1a1 1 0 0 0 1 0 1 1 0 0 0 0-1zM440 196h1a2 2 0 0 0 2 0l-1-1a2 2 0 0 0-2 0 1 1 0 0 0 0 1zM83 163v1a1 1 0 0 0 1 0 3 3 0 0 1 0-1 3 3 0 0 0 1-1h-1a1 1 0 0 0-1 1zM62 163h1v-1l-2-1v1zM330 165a1 1 0 0 0 1 1h1a4 4 0 0 0 0-1 2 2 0 0 0-1-1h-1zM147 151h-2 1zM129 143v-1h-1a1 1 0 0 0 1 1zM117 153h1a1 1 0 0 0-1 0zM506 121a2 2 0 0 0 0-1v-1a1 1 0 0 0-1 1 1 1 0 0 0 1 1zM121 164a1 1 0 0 0-1 0 7 7 0 0 1 1 1 2 2 0 0 1 1 0v-1a1 1 0 0 0 0-1 1 1 0 0 0-1 0zM137 135a1 1 0 0 1 0 1 1 1 0 0 0 0 1h1a1 1 0 0 0 0-1 1 1 0 0 0-1-1zM130 151a1 1 0 0 0 1 0zM106 170v1c-1 1 0 1 1 1a1 1 0 0 0 0-1 1 1 0 0 0-1-1zM62 194a1 1 0 0 0-1 1 1 1 0 0 0 1 0zM83 181a1 1 0 0 0 1-1 1 1 0 0 0 0-1h-1a2 2 0 0 1 0 1 2 2 0 0 0 0 1zM129 163v1a1 1 0 0 0 0-1zM151 157h1a1 1 0 0 0 0-1 3 3 0 0 1-1 0 3 3 0 0 0-1-1v1a1 1 0 0 0 1 1zM387 32h-1a3 3 0 0 0-2 1h1a9 9 0 0 0 2 0 1 1 0 0 1 0-1zM19 107v-1l-1-1-1 2zM402 44h1a1 1 0 0 0 0-1 1 1 0 0 0-1 0zM67 190a1 1 0 0 0 0 1h-1v1a1 1 0 0 0 2-1 1 1 0 0 0-1-1zM30 88v1a1 1 0 0 0 1 0 3 3 0 0 1 0-1 3 3 0 0 0 1-1h-1a1 1 0 0 0-1 1zM9 88h1v-1l-2-1v1zM277 90a1 1 0 0 0 1 1h1a4 4 0 0 0 0-1 2 2 0 0 0-1-1h-1zM94 76h-2 1zM76 68v-1h-1a1 1 0 0 0 1 1zM64 78h1a1 1 0 0 0-1 0zM35 198a2 2 0 0 0 1 0h1a1 1 0 0 0-1-1 1 1 0 0 0-1 1zM68 89a1 1 0 0 0-1 0 7 7 0 0 1 1 1 2 2 0 0 1 1 0v-1a1 1 0 0 0 0-1 1 1 0 0 0-1 0zM84 60a1 1 0 0 1 0 1 1 1 0 0 0 0 1h1a1 1 0 0 0 0-1 1 1 0 0 0-1-1zM77 76a1 1 0 0 0 1 0zM53 95v1c-1 1 0 1 1 1a1 1 0 0 0 0-1 1 1 0 0 0-1-1zM53 195a1 1 0 0 0 1 1h1a2 2 0 0 0-1-1zM9 119a1 1 0 0 0-1 1 1 1 0 0 0 1 0zM30 106a1 1 0 0 0 1-1 1 1 0 0 0 0-1h-1a2 2 0 0 1 0 1 2 2 0 0 0 0 1zM76 88v1a1 1 0 0 0 0-1zM98 82h1a1 1 0 0 0 0-1 3 3 0 0 1-1 0 3 3 0 0 0-1-1v1a1 1 0 0 0 1 1zM124 79v-1a3 3 0 0 0-1-2v1a9 9 0 0 0 0 2 1 1 0 0 1 1 0zM337 45h-1l-1 1 2 1zM112 94v1a1 1 0 0 0 1 0 1 1 0 0 0 0-1zM67 194h1a2 2 0 0 0 2 0l-1-1a2 2 0 0 0-2 0 1 1 0 0 0 0 1zM52 191a1 1 0 0 0 0 1h-1v1a1 1 0 0 0 2-1 1 1 0 0 0-1-1zM15 89v1a1 1 0 0 0 1 0 3 3 0 0 1 0-1 3 3 0 0 0 1-1h-1a1 1 0 0 0-1 1zM262 91a1 1 0 0 0 1 1h1a4 4 0 0 0 0-1 2 2 0 0 0-1-1h-1zM79 77h-2 1zM61 69v-1h-1a1 1 0 0 0 1 1zM49 79h1a1 1 0 0 0-1 0zM20 199a2 2 0 0 0 1 0h1a1 1 0 0 0-1-1 1 1 0 0 0-1 1zM53 90a1 1 0 0 0-1 0 7 7 0 0 1 1 1 2 2 0 0 1 1 0v-1a1 1 0 0 0 0-1 1 1 0 0 0-1 0zM69 61a1 1 0 0 1 0 1 1 1 0 0 0 0 1h1a1 1 0 0 0 0-1 1 1 0 0 0-1-1zM62 77a1 1 0 0 0 1 0zM38 96v1c-1 1 0 1 1 1a1 1 0 0 0 0-1 1 1 0 0 0-1-1zM38 196a1 1 0 0 0 1 1h1a2 2 0 0 0-1-1zM15 107a1 1 0 0 0 1-1 1 1 0 0 0 0-1h-1a2 2 0 0 1 0 1 2 2 0 0 0 0 1zM61 89v1a1 1 0 0 0 0-1zM83 83h1a1 1 0 0 0 0-1 3 3 0 0 1-1 0 3 3 0 0 0-1-1v1a1 1 0 0 0 1 1zM109 80v-1a3 3 0 0 0-1-2v1a9 9 0 0 0 0 2 1 1 0 0 1 1 0zM149 105v-1l-1-1-1 2zM97 95v1a1 1 0 0 0 1 0 1 1 0 0 0 0-1z"/>
  <path d="M52 195h1a2 2 0 0 0 2 0l-1-1a2 2 0 0 0-2 0 1 1 0 0 0 0 1zM240 152a1 1 0 0 0 1 1h1a4 4 0 0 0 0-1 2 2 0 0 0-1-1h-1zM57 138h-2 1zM39 130v-1h-1a1 1 0 0 0 1 1zM27 140h1a1 1 0 0 0-1 0zM493 211a2 2 0 0 0 0-1v-1a1 1 0 0 0-1 1 1 1 0 0 0 1 1zM31 151a1 1 0 0 0-1 0 7 7 0 0 1 1 1 2 2 0 0 1 1 0v-1a1 1 0 0 0 0-1 1 1 0 0 0-1 0zM47 122a1 1 0 0 1 0 1 1 1 0 0 0 0 1h1a1 1 0 0 0 0-1 1 1 0 0 0-1-1zM40 138a1 1 0 0 0 1 0zM16 157v1c-1 1 0 1 1 1a1 1 0 0 0 0-1 1 1 0 0 0-1-1zM39 150v1a1 1 0 0 0 0-1zM61 144h1a1 1 0 0 0 0-1 3 3 0 0 1-1 0 3 3 0 0 0-1-1v1a1 1 0 0 0 1 1zM87 141v-1a3 3 0 0 0-1-2v1a9 9 0 0 0 0 2 1 1 0 0 1 1 0zM127 166v-1l-1-1-1 2zM75 156v1a1 1 0 0 0 1 0 1 1 0 0 0 0-1zM34 121v1a1 1 0 0 0 1 0 3 3 0 0 1 0-1 3 3 0 0 0 1-1h-1a1 1 0 0 0-1 1zM13 121h1v-1l-2-1v1zM281 123a1 1 0 0 0 1 1h1a4 4 0 0 0 0-1 2 2 0 0 0-1-1h-1zM98 109h-2 1zM80 101v-1h-1a1 1 0 0 0 1 1zM68 111h1a1 1 0 0 0-1 0zM464 170a2 2 0 0 0 0-1v-1a1 1 0 0 0-1 1 1 1 0 0 0 1 1zM72 122a1 1 0 0 0-1 0 7 7 0 0 1 1 1 2 2 0 0 1 1 0v-1a1 1 0 0 0 0-1 1 1 0 0 0-1 0zM88 93a1 1 0 0 1 0 1 1 1 0 0 0 0 1h1a1 1 0 0 0 0-1 1 1 0 0 0-1-1zM81 109a1 1 0 0 0 1 0zM57 128v1c-1 1 0 1 1 1a1 1 0 0 0 0-1 1 1 0 0 0-1-1zM13 152a1 1 0 0 0-1 1 1 1 0 0 0 1 0zM34 139a1 1 0 0 0 1-1 1 1 0 0 0 0-1h-1a2 2 0 0 1 0 1 2 2 0 0 0 0 1zM80 121v1a1 1 0 0 0 0-1zM102 115h1a1 1 0 0 0 0-1 3 3 0 0 1-1 0 3 3 0 0 0-1-1v1a1 1 0 0 0 1 1zM128 112v-1a3 3 0 0 0-1-2v1a9 9 0 0 0 0 2 1 1 0 0 1 1 0zM370 41h-1l-1 1 2 1zM116 127v1a1 1 0 0 0 1 0 1 1 0 0 0 0-1zM69 204v1a1 1 0 0 0 1 0 3 3 0 0 1 0-1 3 3 0 0 0 1-1h-1a1 1 0 0 0-1 1zM48 204h1v-1l-2-1v1zM316 206a1 1 0 0 0 1 1h1a4 4 0 0 0 0-1 2 2 0 0 0-1-1h-1zM133 192h-2 1zM115 184v-1h-1a1 1 0 0 0 1 1zM103 194h1a1 1 0 0 0-1 0zM547 135a2 2 0 0 0 0-1v-1a1 1 0 0 0-1 1 1 1 0 0 0 1 1zM107 205a1 1 0 0 0-1 0 7 7 0 0 1 1 1 2 2 0 0 1 1 0v-1a1 1 0 0 0 0-1 1 1 0 0 0-1 0zM123 176a1 1 0 0 1 0 1 1 1 0 0 0 0 1h1a1 1 0 0 0 0-1 1 1 0 0 0-1-1zM116 192a1 1 0 0 0 1 0zM444 117h1c1 1 1 0 1-1a1 1 0 0 0-1 0 1 1 0 0 0-1 1zM468 161a1 1 0 0 0 1 1 1 1 0 0 0 0-1zM455 140a1 1 0 0 0-1-1 1 1 0 0 0-1 0v1a2 2 0 0 1 1 0 2 2 0 0 0 1 0zM115 204v1a1 1 0 0 0 0-1zM137 198h1a1 1 0 0 0 0-1 3 3 0 0 1-1 0 3 3 0 0 0-1-1v1a1 1 0 0 0 1 1zM428 46h-1a3 3 0 0 0-2 1h1a9 9 0 0 0 2 0 1 1 0 0 1 0-1zM5 148v-1l-1-1-1 2zM443 58h1a1 1 0 0 0 0-1 1 1 0 0 0-1 0zM74 166a1 1 0 0 0 0 1h-1v1a1 1 0 0 0 2-1 1 1 0 0 0-1-1zM37 64v1a1 1 0 0 0 1 0 3 3 0 0 1 0-1 3 3 0 0 0 1-1h-1a1 1 0 0 0-1 1zM16 64h1v-1l-2-1v1zM284 66a1 1 0 0 0 1 1h1a4 4 0 0 0 0-1 2 2 0 0 0-1-1h-1zM101 52h-2 1zM83 44v-1h-1a1 1 0 0 0 1 1zM71 54h1a1 1 0 0 0-1 0zM42 174a2 2 0 0 0 1 0h1a1 1 0 0 0-1-1 1 1 0 0 0-1 1zM75 65a1 1 0 0 0-1 0 7 7 0 0 1 1 1 2 2 0 0 1 1 0v-1a1 1 0 0 0 0-1 1 1 0 0 0-1 0zM91 36a1 1 0 0 1 0 1 1 1 0 0 0 0 1h1a1 1 0 0 0 0-1 1 1 0 0 0-1-1zM84 52a1 1 0 0 0 1 0zM60 71v1c-1 1 0 1 1 1a1 1 0 0 0 0-1 1 1 0 0 0-1-1zM60 171a1 1 0 0 0 1 1h1a2 2 0 0 0-1-1zM16 95a1 1 0 0 0-1 1 1 1 0 0 0 1 0zM37 82a1 1 0 0 0 1-1 1 1 0 0 0 0-1h-1a2 2 0 0 1 0 1 2 2 0 0 0 0 1zM83 64v1a1 1 0 0 0 0-1zM105 58h1a1 1 0 0 0 0-1 3 3 0 0 1-1 0 3 3 0 0 0-1-1v1a1 1 0 0 0 1 1zM131 55v-1a3 3 0 0 0-1-2v1a9 9 0 0 0 0 2 1 1 0 0 1 1 0zM313 38h-1l-1 1 2 1zM119 70v1a1 1 0 0 0 1 0 1 1 0 0 0 0-1zM74 170h1a2 2 0 0 0 2 0l-1-1a2 2 0 0 0-2 0 1 1 0 0 0 0 1zM65 126v1a1 1 0 0 0 1 0 3 3 0 0 1 0-1 3 3 0 0 0 1-1h-1a1 1 0 0 0-1 1zM44 126h1v-1l-2-1v1zM312 128a1 1 0 0 0 1 1h1a4 4 0 0 0 0-1 2 2 0 0 0-1-1h-1zM129 114h-2 1zM111 106v-1h-1a1 1 0 0 0 1 1zM99 116h1a1 1 0 0 0-1 0zM469 139a2 2 0 0 0 0-1v-1a1 1 0 0 0-1 1 1 1 0 0 0 1 1zM103 127a1 1 0 0 0-1 0 7 7 0 0 1 1 1 2 2 0 0 1 1 0v-1a1 1 0 0 0 0-1 1 1 0 0 0-1 0zM119 98a1 1 0 0 1 0 1 1 1 0 0 0 0 1h1a1 1 0 0 0 0-1 1 1 0 0 0-1-1zM112 114a1 1 0 0 0 1 0zM88 133v1c-1 1 0 1 1 1a1 1 0 0 0 0-1 1 1 0 0 0-1-1zM44 157a1 1 0 0 0-1 1 1 1 0 0 0 1 0zM65 144a1 1 0 0 0 1-1 1 1 0 0 0 0-1h-1a2 2 0 0 1 0 1 2 2 0 0 0 0 1zM111 126v1a1 1 0 0 0 0-1zM133 120h1a1 1 0 0 0 0-1 3 3 0 0 1-1 0 3 3 0 0 0-1-1v1a1 1 0 0 0 1 1zM159 117v-1a3 3 0 0 0-1-2v1a9 9 0 0 0 0 2 1 1 0 0 1 1 0zM1 70v-1l-1-1-1 2zM147 132v1a1 1 0 0 0 1 0 1 1 0 0 0 0-1zM456 87h1a1 1 0 0 0 0-1 3 3 0 0 1-1 0 3 3 0 0 0-1-1v1a1 1 0 0 0 1 1zM456 108v-1h-1l-1 2h1zM444 23v2-1zM436 41h-1v1a1 1 0 0 0 1-1zM446 53v-1a1 1 0 0 0 0 1zM457 49a1 1 0 0 0 0 1 7 7 0 0 1 1-1 2 2 0 0 1 0-1h-1a1 1 0 0 0-1 0 1 1 0 0 0 0 1zM428 33a1 1 0 0 1 1 0 1 1 0 0 0 1 0v-1a1 1 0 0 0-1 0 1 1 0 0 0-1 1zM444 40a1 1 0 0 0 0-1zM463 64h1c1 1 1 0 1-1a1 1 0 0 0-1 0 1 1 0 0 0-1 1zM487 108a1 1 0 0 0 1 1 1 1 0 0 0 0-1zM474 87a1 1 0 0 0-1-1 1 1 0 0 0-1 0v1a2 2 0 0 1 1 0 2 2 0 0 0 1 0zM456 41h1a1 1 0 0 0-1 0zM19 142v-1a3 3 0 0 0-1-2v1a9 9 0 0 0 0 2 1 1 0 0 1 1 0zM59 167v-1l-1-1-1 2zM7 157v1a1 1 0 0 0 1 0 1 1 0 0 0 0-1zM119 148v1a1 1 0 0 0 1 0 3 3 0 0 1 0-1 3 3 0 0 0 1-1h-1a1 1 0 0 0-1 1zM98 148h1v-1l-2-1v1zM366 150a1 1 0 0 0 1 1h1a4 4 0 0 0 0-1 2 2 0 0 0-1-1h-1zM369 26v2-1zM361 44h-1v1a1 1 0 0 0 1-1zM153 138h1a1 1 0 0 0-1 0zM491 85a2 2 0 0 0 0-1v-1a1 1 0 0 0-1 1 1 1 0 0 0 1 1zM157 149a1 1 0 0 0-1 0 7 7 0 0 1 1 1 2 2 0 0 1 1 0v-1a1 1 0 0 0 0-1 1 1 0 0 0-1 0zM353 36a1 1 0 0 1 1 0 1 1 0 0 0 1 0v-1a1 1 0 0 0-1 0 1 1 0 0 0-1 1z"/>
  <path d="M369 43a1 1 0 0 0 0-1zM142 155v1c-1 1 0 1 1 1a1 1 0 0 0 0-1 1 1 0 0 0-1-1zM98 179a1 1 0 0 0-1 1 1 1 0 0 0 1 0zM119 166a1 1 0 0 0 1-1 1 1 0 0 0 0-1h-1a2 2 0 0 1 0 1 2 2 0 0 0 0 1zM381 44h1a1 1 0 0 0-1 0zM375 22v-1a1 1 0 0 0-1 0 3 3 0 0 1 0 1 3 3 0 0 0-1 1h1a1 1 0 0 0 1-1zM15 67v-1a3 3 0 0 0-1-2v1a9 9 0 0 0 0 2 1 1 0 0 1 1 0zM55 92v-1l-1-1-1 2zM3 82v1a1 1 0 0 0 1 0 1 1 0 0 0 0-1zM209 170a1 1 0 0 0 0 1h-1v1a1 1 0 0 0 2-1 1 1 0 0 0-1-1zM302 37h1a1 1 0 0 0 0-1 3 3 0 0 1-1 0 3 3 0 0 0-1-1v1a1 1 0 0 0 1 1zM151 68h1v-1l-2-1v1zM419 70a1 1 0 0 0 1 1h1a4 4 0 0 0 0-1 2 2 0 0 0-1-1h-1zM412 32a2 2 0 0 0 0-1v-1a1 1 0 0 0-1 1 1 1 0 0 0 1 1zM195 175a1 1 0 0 0 1 1h1a2 2 0 0 0-1-1zM151 99a1 1 0 0 0-1 1 1 1 0 0 0 1 0zM320 37a1 1 0 0 0-1-1 1 1 0 0 0-1 0v1a2 2 0 0 1 1 0 2 2 0 0 0 1 0zM108 12v-1l-1-1-1 2zM56 2v1a1 1 0 0 0 1 0 1 1 0 0 0 0-1zM209 174h1a2 2 0 0 0 2 0l-1-1a2 2 0 0 0-2 0 1 1 0 0 0 0 1zM65 111v1a1 1 0 0 0 1 0 3 3 0 0 1 0-1 3 3 0 0 0 1-1h-1a1 1 0 0 0-1 1zM44 111h1v-1l-2-1v1zM510 185a1 1 0 0 0 1 1h1a4 4 0 0 0 0-1 2 2 0 0 0-1-1h-1zM129 99h-2 1zM111 91v-1h-1a1 1 0 0 0 1 1zM99 101h1a1 1 0 0 0-1 0zM103 112a1 1 0 0 0-1 0 7 7 0 0 1 1 1 2 2 0 0 1 1 0v-1a1 1 0 0 0 0-1 1 1 0 0 0-1 0zM119 83a1 1 0 0 1 0 1 1 1 0 0 0 0 1h1a1 1 0 0 0 0-1 1 1 0 0 0-1-1zM112 99a1 1 0 0 0 1 0zM88 118v1c-1 1 0 1 1 1a1 1 0 0 0 0-1 1 1 0 0 0-1-1zM44 142a1 1 0 0 0-1 1 1 1 0 0 0 1 0zM65 129a1 1 0 0 0 1-1 1 1 0 0 0 0-1h-1a2 2 0 0 1 0 1 2 2 0 0 0 0 1zM111 111v1a1 1 0 0 0 0-1zM133 105h1a1 1 0 0 0 0-1 3 3 0 0 1-1 0 3 3 0 0 0-1-1v1a1 1 0 0 0 1 1zM159 102v-1a3 3 0 0 0-1-2v1a9 9 0 0 0 0 2 1 1 0 0 1 1 0zM199 127v-1l-1-1-1 2zM147 117v1a1 1 0 0 0 1 0 1 1 0 0 0 0-1zM133 100v1a1 1 0 0 0 1 0 3 3 0 0 1 0-1 3 3 0 0 0 1-1h-1a1 1 0 0 0-1 1z"/>
  <path d="M112 100h1v-1l-2-1v1zM197 88h-2 1zM179 80v-1h-1a1 1 0 0 0 1 1zM167 90h1a1 1 0 0 0-1 0zM138 210a2 2 0 0 0 1 0h1a1 1 0 0 0-1-1 1 1 0 0 0-1 1zM171 101a1 1 0 0 0-1 0 7 7 0 0 1 1 1 2 2 0 0 1 1 0v-1a1 1 0 0 0 0-1 1 1 0 0 0-1 0zM187 72a1 1 0 0 1 0 1 1 1 0 0 0 0 1h1a1 1 0 0 0 0-1 1 1 0 0 0-1-1zM180 88a1 1 0 0 0 1 0zM156 107v1c-1 1 0 1 1 1a1 1 0 0 0 0-1 1 1 0 0 0-1-1zM112 131a1 1 0 0 0-1 1 1 1 0 0 0 1 0zM133 118a1 1 0 0 0 1-1 1 1 0 0 0 0-1h-1a2 2 0 0 1 0 1 2 2 0 0 0 0 1zM179 100v1a1 1 0 0 0 0-1zM201 94h1a1 1 0 0 0 0-1 3 3 0 0 1-1 0 3 3 0 0 0-1-1v1a1 1 0 0 0 1 1zM227 91v-1a3 3 0 0 0-1-2v1a9 9 0 0 0 0 2 1 1 0 0 1 1 0zM267 116v-1l-1-1-1 2zM215 106v1a1 1 0 0 0 1 0 1 1 0 0 0 0-1zM118 94v1a1 1 0 0 0 1 0 3 3 0 0 1 0-1 3 3 0 0 0 1-1h-1a1 1 0 0 0-1 1zM97 94h1v-1l-2-1v1zM182 82h-2 1zM164 74v-1h-1a1 1 0 0 0 1 1zM152 84h1a1 1 0 0 0-1 0zM123 204a2 2 0 0 0 1 0h1a1 1 0 0 0-1-1 1 1 0 0 0-1 1zM156 95a1 1 0 0 0-1 0 7 7 0 0 1 1 1 2 2 0 0 1 1 0v-1a1 1 0 0 0 0-1 1 1 0 0 0-1 0zM172 66a1 1 0 0 1 0 1 1 1 0 0 0 0 1h1a1 1 0 0 0 0-1 1 1 0 0 0-1-1zM165 82a1 1 0 0 0 1 0zM141 101v1c-1 1 0 1 1 1a1 1 0 0 0 0-1 1 1 0 0 0-1-1zM97 125a1 1 0 0 0-1 1 1 1 0 0 0 1 0zM118 112a1 1 0 0 0 1-1 1 1 0 0 0 0-1h-1a2 2 0 0 1 0 1 2 2 0 0 0 0 1zM164 94v1a1 1 0 0 0 0-1zM186 88h1a1 1 0 0 0 0-1 3 3 0 0 1-1 0 3 3 0 0 0-1-1v1a1 1 0 0 0 1 1zM212 85v-1a3 3 0 0 0-1-2v1a9 9 0 0 0 0 2 1 1 0 0 1 1 0zM252 110v-1l-1-1-1 2zM200 100v1a1 1 0 0 0 1 0 1 1 0 0 0 0-1zM406 203a1 1 0 0 0 0 1h-1v1a1 1 0 0 0 2-1 1 1 0 0 0-1-1zM171 29v1a1 1 0 0 0 1 0 3 3 0 0 1 0-1 3 3 0 0 0 1-1h-1a1 1 0 0 0-1 1zM150 29h1v-1l-2-1v1zM235 17h-2 1zM217 9V8h-1a1 1 0 0 0 1 1zM205 19h1a1 1 0 0 0-1 0zM176 139a2 2 0 0 0 1 0h1a1 1 0 0 0-1-1 1 1 0 0 0-1 1zM209 30a1 1 0 0 0-1 0 7 7 0 0 1 1 1 2 2 0 0 1 1 0v-1a1 1 0 0 0 0-1 1 1 0 0 0-1 0zM225 1a1 1 0 0 1 0 1 1 1 0 0 0 0 1h1a1 1 0 0 0 0-1 1 1 0 0 0-1-1zM218 17a1 1 0 0 0 1 0zM194 36v1c-1 1 0 1 1 1a1 1 0 0 0 0-1 1 1 0 0 0-1-1zM392 208a1 1 0 0 0 1 1h1a2 2 0 0 0-1-1zM150 60a1 1 0 0 0-1 1 1 1 0 0 0 1 0zM171 47a1 1 0 0 0 1-1 1 1 0 0 0 0-1h-1a2 2 0 0 1 0 1 2 2 0 0 0 0 1zM217 29v1a1 1 0 0 0 0-1zM239 23h1a1 1 0 0 0 0-1 3 3 0 0 1-1 0 3 3 0 0 0-1-1v1a1 1 0 0 0 1 1zM265 20v-1a3 3 0 0 0-1-2v1a9 9 0 0 0 0 2 1 1 0 0 1 1 0zM305 45v-1l-1-1-1 2zM253 35v1a1 1 0 0 0 1 0 1 1 0 0 0 0-1zM406 207h1a2 2 0 0 0 2 0l-1-1a2 2 0 0 0-2 0 1 1 0 0 0 0 1zM243 50v1a1 1 0 0 0 1 0 3 3 0 0 1 0-1 3 3 0 0 0 1-1h-1a1 1 0 0 0-1 1zM222 50h1v-1l-2-1v1zM307 38h-2 1zM289 30v-1h-1a1 1 0 0 0 1 1zM277 40h1a1 1 0 0 0-1 0zM248 160a2 2 0 0 0 1 0h1a1 1 0 0 0-1-1 1 1 0 0 0-1 1zM281 51a1 1 0 0 0-1 0 7 7 0 0 1 1 1 2 2 0 0 1 1 0v-1a1 1 0 0 0 0-1 1 1 0 0 0-1 0zM297 22a1 1 0 0 1 0 1 1 1 0 0 0 0 1h1a1 1 0 0 0 0-1 1 1 0 0 0-1-1zM290 38a1 1 0 0 0 1 0zM266 57v1c-1 1 0 1 1 1a1 1 0 0 0 0-1 1 1 0 0 0-1-1zM222 81a1 1 0 0 0-1 1 1 1 0 0 0 1 0zM243 68a1 1 0 0 0 1-1 1 1 0 0 0 0-1h-1a2 2 0 0 1 0 1 2 2 0 0 0 0 1zM289 50v1a1 1 0 0 0 0-1zM311 44h1a1 1 0 0 0 0-1 3 3 0 0 1-1 0 3 3 0 0 0-1-1v1a1 1 0 0 0 1 1zM369 44v-1a3 3 0 0 0-1-2v1a9 9 0 0 0 0 2 1 1 0 0 1 1 0zM377 66v-1l-1-1-1 2zM325 56v1a1 1 0 0 0 1 0 1 1 0 0 0 0-1zM153 63v1a1 1 0 0 0 1 0 3 3 0 0 1 0-1 3 3 0 0 0 1-1h-1a1 1 0 0 0-1 1zM132 63h1v-1l-2-1v1zM217 51h-2 1zM199 43v-1h-1a1 1 0 0 0 1 1zM187 53h1a1 1 0 0 0-1 0zM158 173a2 2 0 0 0 1 0h1a1 1 0 0 0-1-1 1 1 0 0 0-1 1zM191 64a1 1 0 0 0-1 0 7 7 0 0 1 1 1 2 2 0 0 1 1 0v-1a1 1 0 0 0 0-1 1 1 0 0 0-1 0zM207 35a1 1 0 0 1 0 1 1 1 0 0 0 0 1h1a1 1 0 0 0 0-1 1 1 0 0 0-1-1zM200 51a1 1 0 0 0 1 0zM176 70v1c-1 1 0 1 1 1a1 1 0 0 0 0-1 1 1 0 0 0-1-1zM132 94a1 1 0 0 0-1 1 1 1 0 0 0 1 0zM153 81a1 1 0 0 0 1-1 1 1 0 0 0 0-1h-1a2 2 0 0 1 0 1 2 2 0 0 0 0 1zM199 63v1a1 1 0 0 0 0-1zM221 57h1a1 1 0 0 0 0-1 3 3 0 0 1-1 0 3 3 0 0 0-1-1v1a1 1 0 0 0 1 1zM247 54v-1a3 3 0 0 0-1-2v1a9 9 0 0 0 0 2 1 1 0 0 1 1 0zM287 79v-1l-1-1-1 2zM235 69v1a1 1 0 0 0 1 0 1 1 0 0 0 0-1zM274 99v1a1 1 0 0 0 1 0 3 3 0 0 1 0-1 3 3 0 0 0 1-1h-1a1 1 0 0 0-1 1zM253 99h1v-1l-2-1v1zM338 87h-2 1zM320 79v-1h-1a1 1 0 0 0 1 1zM308 89h1a1 1 0 0 0-1 0zM279 209a2 2 0 0 0 1 0h1a1 1 0 0 0-1-1 1 1 0 0 0-1 1zM312 100a1 1 0 0 0-1 0 7 7 0 0 1 1 1 2 2 0 0 1 1 0v-1a1 1 0 0 0 0-1 1 1 0 0 0-1 0zM328 71a1 1 0 0 1 0 1 1 1 0 0 0 0 1h1a1 1 0 0 0 0-1 1 1 0 0 0-1-1zM321 87a1 1 0 0 0 1 0zM297 106v1c-1 1 0 1 1 1a1 1 0 0 0 0-1 1 1 0 0 0-1-1zM253 130a1 1 0 0 0-1 1 1 1 0 0 0 1 0zM274 117a1 1 0 0 0 1-1 1 1 0 0 0 0-1h-1a2 2 0 0 1 0 1 2 2 0 0 0 0 1zM320 99v1a1 1 0 0 0 0-1zM342 93h1a1 1 0 0 0 0-1 3 3 0 0 1-1 0 3 3 0 0 0-1-1v1a1 1 0 0 0 1 1zM368 90v-1a3 3 0 0 0-1-2v1a9 9 0 0 0 0 2 1 1 0 0 1 1 0zM408 115v-1l-1-1-1 2zM356 105v1a1 1 0 0 0 1 0 1 1 0 0 0 0-1z"/>
  </g>
</svg>
